<?xml version="1.0" encoding="UTF-8"?><svg id="a" xmlns="http://www.w3.org/2000/svg" viewBox="0 0 512 427"><path d="m347.133,350.556v71.15h37.718c65.891,0,88.337-17.665,88.337-70.191v-82.607c0-13.84,4.297-18.138,15.758-18.138h20.054v-73.055h-20.054c-11.461,0-15.758-4.781-15.758-18.62v-82.609c0-52.041-22.445-70.19-88.337-70.19h-37.718v71.148c32.461,0,40.109,7.635,40.109,29.123v46.313c0,36.769,11.459,53.959,43.447,61.12-31.988,7.637-43.447,24.826-43.447,61.122v46.313c0,21.487-7.648,29.123-40.109,29.123h0ZM113.505,172.697v27.625h27.628v-27.625h-27.628Zm.003,55.253h-27.627v-27.625h27.627v27.625h0Zm-19.444,40.956v82.607c0,52.527,22.446,70.191,88.339,70.191h37.716v-71.15c-32.461,0-40.107-7.635-40.107-29.123v-46.313c0-36.296-11.461-53.485-43.447-61.122,31.987-7.161,43.447-24.351,43.447-61.12v-7.803h-11.251v-27.627h11.251v-10.883c0-21.487,7.646-29.123,40.107-29.123V6.295h-37.716c-65.893,0-88.339,18.149-88.339,70.19v40.964h19.441l.003,27.627h-19.444s0,14.018,0,14.018c0,13.839-4.298,18.62-15.756,18.62h-20.054v73.055h20.054c11.458,0,15.756,4.298,15.756,18.138h0Z" fill="#000059" fill-rule="evenodd" stroke-width="0"/><polygon points="113.506 117.448 141.133 117.448 141.133 89.82 113.506 89.82 113.506 117.448 113.506 117.448" fill="#03b5f5" fill-rule="evenodd" stroke-width="0"/><polygon points="85.881 117.448 113.505 117.448 113.505 89.82 85.881 89.82 85.881 117.448 85.881 117.448" fill="#0ad4e8" fill-rule="evenodd" stroke-width="0"/><polygon points="30.631 117.448 58.258 117.448 58.258 89.82 30.631 89.82 30.631 117.448 30.631 117.448" fill="#45e8f5" fill-rule="evenodd" stroke-width="0"/><polygon points="58.253 145.075 85.881 145.075 85.881 117.448 58.253 117.448 58.253 145.075 58.253 145.075" fill="#000059" fill-rule="evenodd" stroke-width="0"/><polygon points="3 172.697 30.628 172.697 30.628 145.074 3 145.074 3 172.697 3 172.697" fill="#03b5f5" fill-rule="evenodd" stroke-width="0"/><polygon points="113.506 172.697 141.133 172.697 141.133 145.074 113.506 145.074 113.506 172.697 113.506 172.697" fill="#45e8f5" fill-rule="evenodd" stroke-width="0"/><polygon points="85.881 172.697 113.505 172.697 113.505 145.074 85.881 145.074 85.881 172.697 85.881 172.697" fill="#0ad1e5" fill-rule="evenodd" stroke-width="0"/><polygon points="85.881 200.322 113.505 200.322 113.505 172.697 85.881 172.697 85.881 200.322 85.881 200.322" fill="#45e8f5" fill-rule="evenodd" stroke-width="0"/><polygon points="58.253 227.951 85.881 227.951 85.881 200.325 58.253 200.325 58.253 227.951 58.253 227.951" fill="#03b5f5" fill-rule="evenodd" stroke-width="0"/><polygon points="196.388 227.951 224.015 227.951 224.015 200.325 196.388 200.325 196.388 227.951 196.388 227.951" fill="#03b5f5" fill-rule="evenodd" stroke-width="0"/><polygon points="224.015 200.322 251.643 200.322 251.643 172.697 224.015 172.697 224.015 200.322 224.015 200.322" fill="#45e8f5" fill-rule="evenodd" stroke-width="0"/><polygon points="3.008 255.579 30.631 255.579 30.631 227.954 3.008 227.954 3.008 255.579 3.008 255.579" fill="#45e8f5" fill-rule="evenodd" stroke-width="0"/></svg>