<?xml version="1.0" encoding="UTF-8"?><svg id="a" xmlns="http://www.w3.org/2000/svg" viewBox="0 0 582.351 157.451"><path d="m130.435,130.483v26.967h14.296c24.974,0,33.482-6.695,33.482-26.604v-31.31c0-5.246,1.629-6.875,5.973-6.875h7.601v-27.69h-7.601c-4.344,0-5.973-1.812-5.973-7.057v-31.311c0-19.725-8.507-26.604-33.482-26.604h-14.296v26.967c12.304,0,15.202,2.894,15.202,11.038v17.554c0,13.936,4.343,20.452,16.468,23.166-12.124,2.895-16.468,9.41-16.468,23.167v17.554c0,8.144-2.899,11.038-15.202,11.038h0ZM41.884,63.071v10.471h10.472v-10.471h-10.472Zm.001,20.942h-10.471v-10.471h10.471v10.471h0Zm-7.37,15.523v31.31c0,19.909,8.507,26.604,33.482,26.604h14.295v-26.967c-12.304,0-15.202-2.894-15.202-11.038v-17.554c0-13.757-4.344-20.272-16.468-23.167,12.124-2.714,16.468-9.23,16.468-23.166v-2.958h-4.264v-10.471h4.264v-4.125c0-8.144,2.898-11.038,15.202-11.038V0h-14.295c-24.975,0-33.482,6.879-33.482,26.604v15.526h7.369v10.471s-7.369,0-7.369,0v5.314c0,5.246-1.629,7.057-5.972,7.057h-7.601v27.69h7.601c4.343,0,5.972,1.629,5.972,6.875h0Z" fill="#000059" fill-rule="evenodd" stroke-width="0"/><polygon points="41.885 42.13 52.356 42.13 52.356 31.658 41.885 31.658 41.885 42.13 41.885 42.13" fill="#03b5f5" fill-rule="evenodd" stroke-width="0"/><polygon points="31.414 42.13 41.884 42.13 41.884 31.658 31.414 31.658 31.414 42.13 31.414 42.13" fill="#0ad4e8" fill-rule="evenodd" stroke-width="0"/><polygon points="10.473 42.13 20.944 42.13 20.944 31.658 10.473 31.658 10.473 42.13 10.473 42.13" fill="#45e8f5" fill-rule="evenodd" stroke-width="0"/><polygon points="20.942 52.601 31.414 52.601 31.414 42.13 20.942 42.13 20.942 52.601 20.942 52.601" fill="#000059" fill-rule="evenodd" stroke-width="0"/><polygon points="0 63.071 10.472 63.071 10.472 52.601 0 52.601 0 63.071 0 63.071" fill="#03b5f5" fill-rule="evenodd" stroke-width="0"/><polygon points="41.885 63.071 52.356 63.071 52.356 52.601 41.885 52.601 41.885 63.071 41.885 63.071" fill="#45e8f5" fill-rule="evenodd" stroke-width="0"/><polygon points="31.414 63.071 41.884 63.071 41.884 52.601 31.414 52.601 31.414 63.071 31.414 63.071" fill="#0ad1e5" fill-rule="evenodd" stroke-width="0"/><polygon points="31.414 73.541 41.884 73.541 41.884 63.071 31.414 63.071 31.414 73.541 31.414 73.541" fill="#45e8f5" fill-rule="evenodd" stroke-width="0"/><polygon points="20.942 84.013 31.414 84.013 31.414 73.542 20.942 73.542 20.942 84.013 20.942 84.013" fill="#03b5f5" fill-rule="evenodd" stroke-width="0"/><polygon points="73.299 84.013 83.77 84.013 83.77 73.542 73.299 73.542 73.299 84.013 73.299 84.013" fill="#03b5f5" fill-rule="evenodd" stroke-width="0"/><polygon points="83.77 73.541 94.242 73.541 94.242 63.071 83.77 63.071 83.77 73.541 83.77 73.541" fill="#45e8f5" fill-rule="evenodd" stroke-width="0"/><polygon points=".003 94.485 10.473 94.485 10.473 84.014 .003 84.014 .003 94.485 .003 94.485" fill="#45e8f5" fill-rule="evenodd" stroke-width="0"/><path d="m275.289,18.476c.487.487.73,1.055.73,1.785v12.737c0,.812-.243,1.379-.73,1.785l-10.223,9.816c-.892.893-1.946,1.299-3.164,1.299h-36.184v18.903c0,.893-.406,1.298-1.299,1.298h-12.737c-.812,0-1.217-.405-1.217-1.298V12.391c0-1.541.73-2.353,2.271-2.353h52.329c.974,0,1.785.324,2.435.974l7.788,7.464Zm-18.822.649c-.405-.406-.893-.568-1.46-.568h-27.909c-.893,0-1.379.487-1.379,1.38v17.687h27.665c.812,0,1.542-.325,2.109-.893l4.544-4.381c.486-.487.729-1.056.729-1.785v-6.409c0-.568-.243-1.136-.729-1.623l-3.57-3.407Z" fill="#000059" stroke-width="0"/><path d="m352.36,18.314c.567.568.893,1.298.893,2.19v35.13c0,.893-.325,1.622-.893,2.19l-7.87,7.545c-.486.487-1.136.73-1.947.73h-44.216c-.812,0-1.461-.243-1.947-.73l-7.87-7.545c-.567-.568-.893-1.298-.893-2.19V20.504c0-.893.325-1.622.893-2.19l7.87-7.545c.486-.487,1.136-.73,1.947-.73h44.216c.812,0,1.461.243,1.947.73l7.87,7.545Zm-18.579.893c-.406-.406-.974-.649-1.542-.649h-23.608c-.568,0-1.136.243-1.542.649l-3.65,3.569c-.406.406-.568.893-.568,1.461v27.665c0,.568.162,1.055.568,1.461l3.65,3.569c.406.406.974.649,1.542.649h23.608c.568,0,1.136-.243,1.542-.649l3.65-3.569c.406-.406.568-.893.568-1.461v-27.665c0-.568-.162-1.055-.568-1.461l-3.65-3.569Z" fill="#000059" stroke-width="0"/><path d="m408.659,53.281c0,.729-.243,1.298-.729,1.784l-10.791,10.142c-.567.568-1.379.893-2.271.893h-30.586c-.812,0-1.218-.405-1.218-1.298v-6.328c0-.893.406-1.299,1.218-1.299h21.662c.648,0,1.217-.243,1.622-.648l5.03-4.706c.405-.405.567-.812.567-1.298V11.336c0-.893.406-1.298,1.299-1.298h12.899c.893,0,1.298.405,1.298,1.298v41.945Z" fill="#000059" stroke-width="0"/><path d="m481.025,17.34c0,.812-.405,1.217-1.298,1.217h-36.509c-.487,0-.893.162-1.299.568l-3.731,3.569c-.406.406-.568.893-.568,1.461v9.167h41.539c.893,0,1.298.406,1.298,1.218v5.76c0,.812-.405,1.217-1.298,1.217h-41.539v9.249c0,.568.162.974.568,1.38l5.192,4.867c.405.406.812.568,1.379.568h35.049c.893,0,1.298.405,1.298,1.298v5.923c0,.893-.405,1.298-1.298,1.298h-43.729c-.893,0-1.704-.324-2.435-.893l-10.709-10.142c-.486-.486-.73-1.055-.73-1.784V20.261c0-.73.244-1.298.73-1.785l7.789-7.464c.648-.649,1.379-.974,2.271-.974h46.731c.893,0,1.298.405,1.298,1.298v6.004Z" fill="#000059" stroke-width="0"/><path d="m579.108,64.802c0,.893-.406,1.298-1.217,1.298h-8.763c-.812,0-1.217-.405-1.217-1.298V26.67l-24.096,38.456c-.406.649-.974.974-1.704.974h-11.034c-.811,0-1.298-.324-1.703-.974l-24.177-38.456v38.132c0,.893-.406,1.298-1.218,1.298h-8.6c-.812,0-1.217-.405-1.217-1.298V11.986c0-1.298.649-1.947,1.866-1.947h14.685c.812,0,1.379.405,1.866,1.217l24.663,40.565,24.745-40.565c.487-.812,1.055-1.217,1.947-1.217h13.306c1.217,0,1.866.649,1.866,1.947v52.816Z" fill="#000059" stroke-width="0"/><path d="m295.41,130.862c0,.893-.406,1.298-1.217,1.298h-8.763c-.812,0-1.217-.405-1.217-1.298v-38.132l-24.096,38.456c-.406.649-.974.974-1.704.974h-11.034c-.811,0-1.298-.324-1.703-.974l-24.177-38.456v38.132c0,.893-.406,1.298-1.218,1.298h-8.6c-.812,0-1.217-.405-1.217-1.298v-52.816c0-1.298.649-1.947,1.866-1.947h14.685c.812,0,1.379.405,1.866,1.217l24.663,40.565,24.745-40.565c.487-.812,1.055-1.217,1.947-1.217h13.306c1.217,0,1.866.649,1.866,1.947v52.816Z" fill="#000059" stroke-width="0"/><path d="m351.952,96.462c.244.243.649,1.217.649,1.622v31.642c0,1.622-.812,2.434-2.353,2.434h-37.645c-.73,0-1.38-.243-2.028-.73l-6.491-6.003c-.486-.406-.729-.974-.729-1.704v-15.091c0-1.622.729-2.434,2.271-2.434h35.049v-6.004c0-.567-.163-.974-.568-1.379l-3.732-3.813c-.243-.243-.567-.405-1.136-.405h-30.667c-.812,0-1.217-.406-1.217-1.298v-4.382c0-.893.405-1.298,1.217-1.298h37.563c.649,0,1.217.243,1.704.73l8.112,8.113Zm-36.184,14.847c-.893,0-1.38.486-1.38,1.379v7.464c0,.649.244,1.218.649,1.623l2.84,2.515c.405.406.893.649,1.46.649h20.039c.893,0,1.299-.486,1.299-1.379v-12.251h-24.907Z" fill="#000059" stroke-width="0"/><path d="m408.497,92.568c0,.893-.405,1.298-1.298,1.298h-32.128c-.568,0-.974.162-1.379.568l-2.191,2.353c-.324.324-.486.73-.486,1.136v3.813c0,.729.162,1.217.568,1.622l1.622,1.947c.487.487.974.73,1.542.73h26.286c1.217,0,2.19.405,2.921,1.136l4.381,4.462c.567.568.812,1.298.812,2.354v9.897c0,.568-.244,1.055-.73,1.542l-6.004,5.841c-.567.568-1.379.893-2.271.893h-39.592c-.812,0-1.217-.405-1.217-1.298v-3.651c0-.893.405-1.298,1.217-1.298h32.614c.649,0,1.217-.243,1.623-.649l2.596-2.434c.244-.243.406-.568.406-.812v-4.705c0-.406-.162-.73-.406-.974l-2.758-2.435c-.244-.243-.649-.405-1.136-.405h-26.368c-.648,0-1.217-.243-1.703-.73l-4.787-4.786c-.486-.487-.73-1.136-.73-1.866v-10.223c0-.649.244-1.217.649-1.622l5.76-6.004c.406-.406.974-.649,1.623-.649h39.268c.893,0,1.298.405,1.298,1.298v3.651Z" fill="#000059" stroke-width="0"/><path d="m466.341,94.353c.486.405.729,1.055.729,1.703v34.806c0,.893-.405,1.298-1.298,1.298h-9.33c-.812,0-1.298-.405-1.298-1.298v-31.642c0-.324-.081-.567-.405-.893l-3.002-3.083c-.244-.243-.649-.405-1.055-.405h-21.987v36.022c0,.893-.405,1.298-1.217,1.298h-9.573c-.812,0-1.217-.405-1.217-1.298v-43.324c0-1.866.081-3.407.324-5.273l1.055-8.844c.081-.729.568-1.055,1.298-1.055h8.113c.812,0,1.217.406,1.217,1.299v13.954h29.451c.893,0,1.46.243,2.109.73l6.085,6.004Z" fill="#000059" stroke-width="0"/><path d="m524.021,123.235c0,.568-.243,1.137-.648,1.623l-6.653,6.652c-.405.406-.974.649-1.622.649h-31.642c-.73,0-1.298-.243-1.703-.649l-6.491-6.652c-.405-.568-.648-1.055-.648-1.623v-34.318c0-.893.405-1.298,1.217-1.298h9.411c.893,0,1.298.405,1.298,1.298v31.561c0,.486.162.893.568,1.298l2.839,2.921c.406.324.649.486.893.486h17.281c.243,0,.567-.243.974-.648l2.84-2.84c.243-.243.486-.568.567-.812v-31.966c0-.893.406-1.298,1.298-1.298h8.925c.893,0,1.298.405,1.298,1.298v34.318Z" fill="#000059" stroke-width="0"/><path d="m581.621,96.462c.486.405.729.974.729,1.622v25.557c0,.648-.243,1.217-.729,1.703l-6.085,6.166c-.406.406-.974.649-1.623.649h-29.938v13.954c0,.893-.405,1.299-1.217,1.299h-9.573c-.812,0-1.217-.406-1.217-1.299v-52.086c0-1.217.567-2.028,1.704-2.353l12.656-3.569c1.055-.325,2.271-.487,3.731-.487h21.743c.649,0,1.217.243,1.704.73l8.113,8.113Zm-15.415-1.218c-.406-.405-.893-.648-1.379-.648h-11.521c-.811,0-1.622.081-2.434.324l-5.679,1.461c-.812.243-1.218.811-1.218,1.703v26.854h21.338c.893,0,1.542-.243,2.028-.73l2.515-2.596c.406-.406.568-.893.568-1.542v-19.39c0-.812-.243-1.461-.649-1.866l-3.569-3.57Z" fill="#000059" stroke-width="0"/></svg>